<svg width="20.651611" height="18.311279" viewBox="0 0 20.6516 18.3113" fill="none" xmlns="http://www.w3.org/2000/svg" xmlns:xlink="http://www.w3.org/1999/xlink">
	<desc>
			Created with Pixso.
	</desc>
	<defs/>
	<path id="Vector" d="M20.13 18.31L5.12 18.31C4.84 18.31 4.61 18.08 4.61 17.79L4.61 10.71C4.61 10.43 4.84 10.2 5.12 10.2L20.13 10.2C20.42 10.2 20.65 10.43 20.65 10.71L20.65 17.79C20.65 18.08 20.42 18.31 20.13 18.31Z" fill="#5A7A39" fill-opacity="1.000000" fill-rule="nonzero"/>
	<path id="Vector" d="M19.28 17.45L4.26 17.45C3.98 17.45 3.75 17.22 3.75 16.94L3.75 9.85C3.75 9.57 3.98 9.34 4.26 9.34L19.28 9.34C19.56 9.34 19.79 9.57 19.79 9.85L19.79 16.94C19.79 17.22 19.56 17.45 19.28 17.45Z" fill="#648940" fill-opacity="1.000000" fill-rule="nonzero"/>
	<path id="Vector" d="M18.42 16.59L3.41 16.59C3.12 16.59 2.89 16.36 2.89 16.08L2.89 9C2.89 8.71 3.12 8.48 3.41 8.48L18.42 8.48C18.7 8.48 18.93 8.71 18.93 9L18.93 16.08C18.93 16.36 18.7 16.59 18.42 16.59Z" fill="#76A34F" fill-opacity="1.000000" fill-rule="nonzero"/>
	<path id="Vector" d="M18.23 13.84L18.23 11.24C18.23 11.15 18.16 11.08 18.07 11.07C17.17 10.99 16.46 10.26 16.39 9.34C16.38 9.25 16.31 9.18 16.22 9.18L5.61 9.18C5.52 9.18 5.45 9.25 5.44 9.34C5.37 10.26 4.65 10.99 3.75 11.07C3.67 11.08 3.6 11.15 3.6 11.24L3.6 13.84C3.6 13.93 3.67 14 3.75 14.01C4.65 14.08 5.37 14.82 5.44 15.74C5.45 15.83 5.52 15.89 5.61 15.89L16.22 15.89C16.31 15.89 16.38 15.83 16.39 15.74C16.46 14.82 17.18 14.08 18.07 14.01C18.16 14 18.23 13.93 18.23 13.84Z" fill="#91B56B" fill-opacity="1.000000" fill-rule="nonzero"/>
	<path id="Vector" d="M13.56 12.54C13.56 14 12.37 15.18 10.91 15.18C9.45 15.18 8.27 14 8.27 12.54C8.27 11.08 9.45 9.89 10.91 9.89C12.37 9.89 13.56 11.08 13.56 12.54Z" fill="#FFFFFF" fill-opacity="1.000000" fill-rule="evenodd"/>
	<path id="Vector" d="M11.18 14.17L10.65 14.17C10.19 14.17 9.81 13.79 9.81 13.32C9.81 13.22 9.89 13.14 10 13.14C10.1 13.14 10.18 13.22 10.18 13.32C10.18 13.58 10.39 13.79 10.65 13.79L11.18 13.79C11.43 13.79 11.64 13.58 11.64 13.32L11.64 13.06C11.64 12.8 11.43 12.59 11.18 12.59L10.65 12.59C10.19 12.59 9.81 12.22 9.81 11.75C9.81 11.29 10.19 10.91 10.65 10.91L11.18 10.91C11.64 10.91 12.02 11.29 12.02 11.75C12.02 11.86 11.93 11.94 11.83 11.94C11.73 11.94 11.64 11.86 11.64 11.75C11.64 11.5 11.43 11.29 11.18 11.29L10.65 11.29C10.39 11.29 10.18 11.5 10.18 11.75C10.18 12.01 10.39 12.22 10.65 12.22L11.18 12.22C11.64 12.22 12.02 12.6 12.02 13.06L12.02 13.32C12.02 13.79 11.64 14.17 11.18 14.17Z" fill="#648940" fill-opacity="1.000000" fill-rule="nonzero"/>
	<path id="Vector" d="M10.91 14.43C10.81 14.43 10.73 14.34 10.73 14.24L10.73 10.84C10.73 10.73 10.81 10.65 10.91 10.65C11.02 10.65 11.1 10.73 11.1 10.84L11.1 14.24C11.1 14.34 11.02 14.43 10.91 14.43Z" fill="#648940" fill-opacity="1.000000" fill-rule="nonzero"/>
	<path id="Vector" d="M9.2 6.67C9.2 9.22 7.14 11.28 4.6 11.28C2.06 11.28 0 9.22 0 6.67C0 4.13 2.06 2.07 4.6 2.07C7.14 2.07 9.2 4.13 9.2 6.67Z" fill="#FFA91A" fill-opacity="1.000000" fill-rule="evenodd"/>
	<path id="Vector" d="M0.68 6.86C0.58 6.86 0.49 6.78 0.49 6.67C0.49 6.57 0.58 6.49 0.68 6.49C0.78 6.49 0.87 6.57 0.87 6.67C0.87 6.78 0.78 6.86 0.68 6.86ZM0.75 6.12C0.74 6.12 0.73 6.11 0.72 6.11C0.67 6.1 0.62 6.07 0.6 6.03C0.57 5.99 0.56 5.94 0.57 5.89C0.76 4.92 1.29 4.05 2.08 3.43C2.28 3.27 2.51 3.13 2.74 3.01C2.83 2.97 2.94 3 2.99 3.09C3.01 3.14 3.02 3.19 3 3.24C2.99 3.28 2.95 3.32 2.91 3.35C2.7 3.45 2.49 3.58 2.31 3.73C1.59 4.29 1.11 5.08 0.94 5.96L0.94 5.96C0.92 6.05 0.84 6.12 0.75 6.12Z" fill="#FFC91D" fill-opacity="1.000000" fill-rule="nonzero"/>
	<path id="Vector" d="M7.23 2.9C7.76 3.64 8.06 4.55 8.06 5.53C8.06 8.07 6 10.13 3.46 10.13C2.48 10.13 1.57 9.83 0.82 9.31C1.66 10.5 3.04 11.28 4.6 11.28C7.14 11.28 9.2 9.22 9.2 6.67C9.2 5.11 8.42 3.73 7.23 2.9Z" fill="#F79219" fill-opacity="1.000000" fill-rule="nonzero"/>
	<path id="Vector" d="M7.56 3.14C8.23 3.94 8.63 4.98 8.63 6.1C8.63 8.64 6.57 10.71 4.03 10.71C2.9 10.71 1.87 10.3 1.07 9.63C1.92 10.64 3.18 11.28 4.6 11.28C7.14 11.28 9.2 9.22 9.2 6.67C9.2 5.26 8.56 3.99 7.56 3.14Z" fill="#EF7816" fill-opacity="1.000000" fill-rule="nonzero"/>
	<path id="Vector" d="M5.02 9.27L4.18 9.27C3.5 9.27 2.95 8.72 2.95 8.04C2.95 7.94 3.03 7.85 3.13 7.85C3.24 7.85 3.32 7.94 3.32 8.04C3.32 8.51 3.71 8.9 4.18 8.9L5.02 8.9C5.49 8.9 5.88 8.51 5.88 8.04L5.88 7.62C5.88 7.15 5.49 6.76 5.02 6.76L4.18 6.76C3.5 6.76 2.95 6.21 2.95 5.52C2.95 4.84 3.5 4.29 4.18 4.29L5.02 4.29C5.7 4.29 6.25 4.84 6.25 5.52C6.25 5.63 6.17 5.71 6.07 5.71C5.96 5.71 5.88 5.63 5.88 5.52C5.88 5.05 5.49 4.66 5.02 4.66L4.18 4.66C3.71 4.66 3.32 5.05 3.32 5.52C3.32 6 3.71 6.38 4.18 6.38L5.02 6.38C5.7 6.38 6.25 6.94 6.25 7.62L6.25 8.04C6.25 8.72 5.7 9.27 5.02 9.27Z" fill="#FFFFFF" fill-opacity="1.000000" fill-rule="nonzero"/>
	<path id="Vector" d="M4.6 9.69C4.5 9.69 4.41 9.61 4.41 9.51L4.41 4.06C4.41 3.95 4.5 3.87 4.6 3.87C4.7 3.87 4.79 3.95 4.79 4.06L4.79 9.51C4.79 9.61 4.7 9.69 4.6 9.69Z" fill="#FFFFFF" fill-opacity="1.000000" fill-rule="nonzero"/>
	<path id="Vector" d="M17.96 3.61C17.96 5.61 16.34 7.22 14.34 7.22C12.35 7.22 10.73 5.61 10.73 3.61C10.73 1.61 12.35 0 14.34 0C16.34 0 17.96 1.61 17.96 3.61Z" fill="#76A34F" fill-opacity="1.000000" fill-rule="evenodd"/>
	<path id="Vector" d="M16.9 1.05C16.79 0.94 16.67 0.84 16.55 0.75C17.65 2.17 17.55 4.22 16.25 5.52C14.95 6.82 12.9 6.92 11.48 5.82C11.58 5.94 11.68 6.06 11.79 6.17C13.2 7.58 15.49 7.58 16.9 6.17C18.31 4.75 18.31 2.47 16.9 1.05Z" fill="#648940" fill-opacity="1.000000" fill-rule="nonzero"/>
	<path id="Vector" d="M13.95 5.53C13.79 5.53 13.63 5.46 13.5 5.34L12.26 4.09C12.01 3.84 12.01 3.44 12.26 3.2C12.5 2.95 12.9 2.95 13.15 3.2L13.95 4L15.54 2.41C15.79 2.16 16.19 2.16 16.43 2.41C16.68 2.66 16.68 3.06 16.43 3.3L14.4 5.34C14.28 5.46 14.11 5.53 13.95 5.53Z" fill="#FFC91D" fill-opacity="1.000000" fill-rule="nonzero"/>
	<path id="Vector" d="M13.69 3.74L13.15 3.2L13.15 3.2L13.69 3.74Z" fill="#377DE2" fill-opacity="1.000000" fill-rule="nonzero"/>
	<path id="Vector" d="M16.43 2.41C16.39 2.36 16.34 2.33 16.28 2.3C16.41 2.54 16.38 2.84 16.17 3.05L14.14 5.08C14.02 5.2 13.85 5.27 13.69 5.27C13.53 5.27 13.37 5.2 13.24 5.08L13.5 5.34C13.63 5.46 13.79 5.53 13.95 5.53C14.11 5.53 14.28 5.46 14.4 5.34L16.43 3.31C16.68 3.06 16.68 2.66 16.43 2.41Z" fill="#FFA91A" fill-opacity="1.000000" fill-rule="nonzero"/>
</svg>
