<svg width="17.000000" height="10.666748" viewBox="0 0 17 10.6667" fill="none" xmlns="http://www.w3.org/2000/svg" xmlns:xlink="http://www.w3.org/1999/xlink">
	<desc>
			Created with Pixso.
	</desc>
	<defs/>
	<path id="Cellular Connection" d="M16 0L15 0C14.4477 0 14 0.447754 14 1L14 9.66675C14 10.219 14.4477 10.6667 15 10.6667L16 10.6667C16.5523 10.6667 17 10.219 17 9.66675L17 1C17 0.447754 16.5523 0 16 0ZM10.3333 2.33325L11.3333 2.33325C11.8856 2.33325 12.3333 2.78101 12.3333 3.33325L12.3333 9.66675C12.3333 10.219 11.8856 10.6667 11.3333 10.6667L10.3333 10.6667C9.78105 10.6667 9.33334 10.219 9.33334 9.66675L9.33334 3.33325C9.33334 2.78101 9.78105 2.33325 10.3333 2.33325ZM6.66666 4.66675L5.66666 4.66675C5.11438 4.66675 4.66666 5.1145 4.66666 5.66675L4.66666 9.66675C4.66666 10.219 5.11438 10.6667 5.66666 10.6667L6.66666 10.6667C7.21895 10.6667 7.66666 10.219 7.66666 9.66675L7.66666 5.66675C7.66666 5.1145 7.21895 4.66675 6.66666 4.66675ZM2 6.66675L1 6.66675C0.447708 6.66675 0 7.1145 0 7.66675L0 9.66675C0 10.219 0.447708 10.6667 1 10.6667L2 10.6667C2.55228 10.6667 3 10.219 3 9.66675L3 7.66675C3 7.1145 2.55228 6.66675 2 6.66675Z" clip-rule="evenodd" fill="#000000" fill-opacity="1.000000" fill-rule="evenodd"/>
</svg>
