<svg width="15.333305" height="11.000000" viewBox="0 0 15.3333 11" fill="none" xmlns="http://www.w3.org/2000/svg" xmlns:xlink="http://www.w3.org/1999/xlink">
	<desc>
			Created with Pixso.
	</desc>
	<defs/>
	<path id="Wifi" d="M13.6438 4.67017C12.0315 3.13867 9.8918 2.28467 7.66707 2.28442C5.44212 2.28442 3.30222 3.13867 1.68965 4.67017C1.56831 4.78882 1.37409 4.78711 1.25459 4.66699L0.0936432 3.49658C0.0331421 3.43555 -0.000556946 3.35303 7.62939e-06 3.26733C0.000572205 3.1814 0.0353546 3.09937 0.0966568 3.03906C4.32857 -1.01294 11.0049 -1.01294 15.2368 3.03906C15.2981 3.09937 15.3328 3.1814 15.3333 3.26733C15.3338 3.35327 15.3 3.43579 15.2395 3.49658L14.0789 4.66699C13.9593 4.78711 13.7652 4.78857 13.6438 4.67017ZM7.66707 6.09204C8.88942 6.09204 10.0681 6.5459 10.9742 7.36572C11.0968 7.48218 11.2898 7.47949 11.4093 7.36011L12.5685 6.1897C12.6296 6.12842 12.6635 6.04492 12.6626 5.9585C12.6617 5.87207 12.6261 5.78931 12.5639 5.72925C9.8047 3.16479 5.53178 3.16479 2.77262 5.72925C2.7103 5.78931 2.67474 5.87207 2.67392 5.9585C2.6731 6.04517 2.70709 6.12842 2.76827 6.1897L3.92721 7.36011C4.04668 7.47949 4.23972 7.48218 4.36227 7.36572C5.26774 6.54639 6.44553 6.09253 7.66707 6.09204ZM9.98929 8.65381C9.99107 8.74072 9.95692 8.82422 9.89492 8.88525L7.88962 10.9072C7.83083 10.9666 7.75069 11 7.66707 11C7.58344 11 7.5033 10.9666 7.44452 10.9072L5.43888 8.88525C5.37692 8.82422 5.34284 8.74072 5.34468 8.65381C5.34651 8.56714 5.38411 8.48486 5.44859 8.42676C6.72925 7.34448 8.60489 7.34448 9.88555 8.42676C9.94998 8.48486 9.98752 8.56714 9.98929 8.65381Z" clip-rule="evenodd" fill="#000000" fill-opacity="1.000000" fill-rule="evenodd"/>
</svg>
